# xmcd
#
# Track frame offsets: 
#        150
#        14722
#        28411
#        43983
#        58745
#        73316
#        87658
#        103745
#        118493
#        132483
#        146652
#        159751
#        173066
#        188361
#        202483
#        214049
#        227005
#        239567
#        253526
#        266285
#        277982
#        292963
#        307731
#        320688
#        335275
#
# Disc length: 4650 seconds
#
# Revision: 0
# Processed by: cddbd v1.5.2PL0 Copyright (c) Steve Scherf et al.
# Submitted via: ExactAudioCopyFreeDBPlugin 1.0
#
DISCID=87122819
DTITLE=Texas Alexander and His Circle - 1927-1951 Authentic Early Texas 
DTITLE=Country Blues CD 3
DYEAR=2017
DGENRE=Texas Blues
TTITLE0=She's So Fair
TTITLE1=Rolling and Stumbling Blues
TTITLE2=Frost Texas Tornado Blues
TTITLE3=Texas Troublesome Blues
TTITLE4=Blues in My Mind
TTITLE5=Mistreatin' Woman
TTITLE6=Polo Blues
TTITLE7=Normangee Blues
TTITLE8=Worried Blues
TTITLE9=Prairie Dog Hole Blues
TTITLE10=Justice Blues
TTITLE11=Katy Crossing Blues
TTITLE12=Lonesome Blues
TTITLE13=Lonesome Valley Blues
TTITLE14=One Morning Blues
TTITLE15=Deceitful Blues
TTITLE16=Easy Rider Blues
TTITLE17=Good Feelin' Blues
TTITLE18=Bottoms Blues
TTITLE19=Cross Roads
TTITLE20=Back Door Blues
TTITLE21=Leavenworth Prison Blues
TTITLE22=Hard Times Blues
TTITLE23=California Desert Blues
TTITLE24=Cartey Blues
EXTD=
EXTT0=
EXTT1=
EXTT2=
EXTT3=
EXTT4=
EXTT5=
EXTT6=
EXTT7=
EXTT8=
EXTT9=
EXTT10=
EXTT11=
EXTT12=
EXTT13=
EXTT14=
EXTT15=
EXTT16=
EXTT17=
EXTT18=
EXTT19=
EXTT20=
EXTT21=
EXTT22=
EXTT23=
EXTT24=
PLAYORDER=
